<svg width="227" height="227" viewBox="0 0 227 227" fill="none" xmlns="http://www.w3.org/2000/svg">
<g clip-path="url(#clip0_0_1)">
<path d="M144.19 166.801V167.301H144.69H157.937V192.275H68.473V167.302H81.719H82.219V166.802V111.584V111.084H81.719H68.473V86.115H87.488H88.5991L87.8622 85.2834C82.3094 79.0165 78.915 70.7872 78.915 61.744C78.915 56.8832 81.1238 50.6206 84.5008 43.9104C87.8695 37.217 92.3661 30.1437 96.8707 23.6815C101.374 17.2212 105.878 11.3814 109.257 7.15614C110.947 5.04376 112.354 3.33553 113.339 2.15577C113.831 1.5659 114.218 1.10818 114.482 0.798153C114.49 0.788447 114.498 0.778885 114.506 0.76947C114.514 0.778909 114.522 0.788495 114.531 0.798226C114.794 1.10825 115.181 1.56597 115.674 2.15584C116.659 3.3356 118.067 5.04383 119.757 7.15621C123.137 11.3815 127.643 17.2213 132.148 23.6816C136.655 30.1437 141.153 37.217 144.523 43.9104C147.901 50.6206 150.111 56.8832 150.111 61.744C150.111 70.7781 146.721 79.0047 141.17 85.2839L140.436 86.115H141.545H157.938V111.083H144.69H144.19V111.583V166.801ZM175.327 200.952V225.918H51.09V200.952H175.327Z" fill="white" stroke="black"/>
</g>
<defs>
<clipPath id="clip0_0_1">
<rect width="226.417" height="226.417" fill="white"/>
</clipPath>
</defs>
</svg>
