<svg width="298" height="298" viewBox="0 0 298 298" fill="none" xmlns="http://www.w3.org/2000/svg">
<path d="M137.227 17V17.5H137.727V17C137.727 17.5 137.727 17.5 137.727 17.5H137.728H137.728H137.73H137.731H137.733H137.735H137.737H137.74H137.743H137.746H137.75H137.754H137.758H137.762H137.767H137.772H137.778H137.784H137.79H137.796H137.803H137.81H137.817H137.824H137.832H137.84H137.849H137.857H137.866H137.876H137.885H137.895H137.905H137.916H137.926H137.937H137.949H137.96H137.972H137.984H137.997H138.009H138.022H138.036H138.049H138.063H138.077H138.091H138.106H138.121H138.136H138.151H138.167H138.183H138.199H138.216H138.233H138.25H138.267H138.284H138.302H138.32H138.338H138.357H138.376H138.395H138.414H138.434H138.454H138.474H138.494H138.515H138.535H138.557H138.578H138.599H138.621H138.643H138.666H138.688H138.711H138.734H138.757H138.781H138.804H138.828H138.853H138.877H138.902H138.926H138.952H138.977H139.002H139.028H139.054H139.081H139.107H139.134H139.161H139.188H139.215H139.243H139.27H139.299H139.327H139.355H139.384H139.413H139.442H139.471H139.501H139.53H139.56H139.59H139.621H139.651H139.682H139.713H139.744H139.775H139.807H139.839H139.871H139.903H139.935H139.968H140H140.033H140.066H140.1H140.133H140.167H140.201H140.235H140.269H140.303H140.338H140.373H140.408H140.443H140.478H140.514H140.55H140.585H140.621H140.658H140.694H140.731H140.767H140.804H140.841H140.879H140.916H140.954H140.991H141.029H141.067H141.106H141.144H141.183H141.221H141.26H141.299H141.339H141.378H141.418H141.457H141.497H141.537H141.577H141.618H141.658H141.699H141.739H141.78H141.821H141.862H141.904H141.945H141.987H142.029H142.07H142.112H142.155H142.197H142.239H142.282H142.325H142.367H142.41H142.453H142.497H142.54H142.584H142.627H142.671H142.715H142.759H142.803H142.847H142.891H142.936H142.981H143.025H143.07H143.115H143.16H143.205H143.251H143.296H143.341H143.387H143.433H143.479H143.525H143.571H143.617H143.663H143.709H143.756H143.802H143.849H143.896H143.943H143.99H144.037H144.084H144.131H144.179H144.226H144.273H144.321H144.369H144.417H144.464H144.512H144.561H144.609H144.657H144.705H144.754H144.802H144.851H144.899H144.948H144.997H145.046H145.094H145.143H145.193H145.242H145.291H145.34H145.39H145.439H145.488H145.538H145.588H145.637H145.687H145.737H145.787H145.837H145.887H145.937H145.987H146.037H146.087H146.138H146.188H146.238H146.289H146.339H146.39H146.44H146.491H146.541H146.592H146.643H146.694H146.745H146.795H146.846H146.897H146.948H146.999H147.05H147.102H147.153H147.204H147.255H147.306H147.358H147.409H147.46H147.512H147.563H147.614H147.666H147.717H147.769H147.82H147.872H147.923H147.975H148.026H148.078H148.13H148.181H148.233H148.284H148.336H148.388H148.439H148.491H148.543H148.594H148.646H148.698H148.75H148.801H148.853H148.905H148.956H149.008H149.06H149.112H149.163H149.215H149.267H149.318H149.37H149.422H149.473H149.525H149.577H149.628H149.68H149.731H149.783H149.835H149.886H149.938H149.989H150.041H150.092H150.143H150.195H150.246H150.298H150.349H150.4H150.451H150.503H150.554H150.605H150.656H150.707H150.758H150.809H150.86H150.911H150.962H151.013H151.064H151.115H151.166H151.216H151.267H151.318H151.368H151.419H151.469H151.52H151.57H151.62H151.671H151.721H151.771H151.821H151.871H151.921H151.971H152.021H152.071H152.121H152.17H152.22H152.27H152.319H152.368H152.418H152.467H152.516H152.566H152.615H152.664H152.713H152.761H152.81H152.859H152.908H152.956H153.005H153.053H153.101H153.15H153.198H153.246H153.294H153.342H153.389H153.437H153.485H153.532H153.58H153.627H153.674H153.722H153.769H153.816H153.862H153.909H153.956H154.002H154.049H154.095H154.142H154.188H154.234H154.28H154.326H154.371H154.417H154.463H154.508H154.553H154.598H154.644H154.688H154.733H154.778H154.823H154.867H154.912H154.956H155H155.044H155.088H155.132H155.175H155.219H155.262H155.305H155.348H155.391H155.434H155.477H155.52H155.562H155.604H155.646H155.688H155.73H155.772H155.814H155.855H155.897H155.938H155.979H156.02H156.06H156.101H156.142H156.182H156.222H156.262H156.302H156.342H156.381H156.421H156.46H156.499H156.538H156.576H156.615H156.654H156.692H156.73H156.768H156.806H156.843H156.881H156.918H156.955H156.992H157.029H157.065H157.102H157.138H157.174H157.21H157.246H157.281H157.317H157.352H157.387H157.422H157.456H157.491H157.525C164.616 17.5 170.88 20.7601 176.013 25.1212C181.144 29.4817 185.108 34.9133 187.584 39.1732C192.623 47.8445 199.393 54.7588 210.859 58.8055C226.79 64.4275 237.489 74.3983 237.489 89C237.489 103.635 225.589 115.5 210.952 115.5C200.548 115.5 191.512 109.503 187.152 100.777L187.014 100.5H186.705H146.523H144.67L146.272 101.432L146.523 101C146.272 101.432 146.272 101.432 146.272 101.432L146.273 101.433L146.279 101.437L146.305 101.452C146.329 101.466 146.364 101.486 146.41 101.514C146.504 101.57 146.643 101.654 146.826 101.765C147.192 101.989 147.732 102.325 148.426 102.772C149.814 103.666 151.817 105.005 154.274 106.78C159.189 110.332 165.915 115.629 173.155 122.61C187.523 136.463 203.897 156.923 212.179 183.5H188.725H188.225V184V198V198.5H188.725H196.356C200.445 198.5 203.225 201.802 203.225 206V207C203.225 210.118 201.649 212.742 199.018 213.882L198.501 214.106L198.785 214.593C207.418 229.404 200.808 243.914 198.651 247.755L198.233 248.5H199.087H203.357C207.446 248.5 210.226 251.802 210.226 256V274C210.226 277.825 207.415 280.973 203.665 281.435L203.226 281.489V281.931V297.5H72.226V282V281.5H71.726C67.9853 281.5 64.226 278.125 64.226 274V256C64.226 251.906 68.1652 248.5 72.357 248.5H77.628H78.482L78.064 247.755C75.8956 243.892 68.675 229.392 77.299 214.593L77.5825 214.106L77.0658 213.882C74.3718 212.715 72.227 210.051 72.227 207V206C72.227 201.906 76.1662 198.5 80.358 198.5H86.727H87.227V198V184V183.5H86.727H65.7552C65.7533 183.492 65.7514 183.483 65.7495 183.475C65.6877 183.203 65.5974 182.799 65.4842 182.269C65.2576 181.209 64.9388 179.648 64.5707 177.645C63.8346 173.64 62.9016 167.872 62.1157 160.824C60.5437 146.726 59.5612 127.518 61.9142 107.068C66.6008 66.3384 84.4991 20.7779 137.227 0.723V17Z" fill="white" stroke="black"/>
</svg>
