<svg width="18" height="18" viewBox="0 0 18 18" fill="none" xmlns="http://www.w3.org/2000/svg">
<g clip-path="url(#clip0_0_1)">
<path d="M12.3758 12.4623L12.3757 12.4624L12.3765 12.4651C12.3979 12.5441 12.3706 12.6194 12.3189 12.6817C12.2933 12.7126 12.2637 12.7374 12.2369 12.7541C12.2094 12.7712 12.1932 12.7747 12.1912 12.775C12.123 12.7757 10.9336 12.7754 9.83784 12.7752C9.31386 12.7751 8.8113 12.775 8.463 12.775C8.09604 12.775 7.61588 12.7751 7.13811 12.7752C6.20954 12.7754 5.28995 12.7757 5.2278 12.775C5.22589 12.7747 5.20977 12.7712 5.18213 12.754C5.15521 12.7372 5.12548 12.7122 5.09958 12.6811C5.04724 12.6183 5.01943 12.5426 5.0398 12.4641L5.03981 12.4641L5.04016 12.4626C5.09792 12.2253 5.30783 12.174 5.379 12.174H5.37942H5.37988H5.38037H5.3809H5.38146H5.38206H5.38269H5.38335H5.38405H5.38479H5.38556H5.38636H5.3872H5.38807H5.38897H5.38991H5.39088H5.39189H5.39293H5.394H5.39511H5.39625H5.39742H5.39863H5.39987H5.40114H5.40244H5.40378H5.40515H5.40656H5.40799H5.40946H5.41096H5.41249H5.41405H5.41565H5.41728H5.41894H5.42063H5.42235H5.42411H5.42589H5.42771H5.42956H5.43144H5.43335H5.43529H5.43726H5.43927H5.4413H5.44336H5.44546H5.44759H5.44974H5.45193H5.45414H5.45639H5.45867H5.46097H5.46331H5.46567H5.46807H5.47049H5.47295H5.47543H5.47794H5.48049H5.48306H5.48566H5.48829H5.49094H5.49363H5.49634H5.49909H5.50186H5.50466H5.50749H5.51034H5.51323H5.51614H5.51908H5.52205H5.52504H5.52806H5.53112H5.53419H5.5373H5.54043H5.54359H5.54678H5.54999H5.55323H5.5565H5.55979H5.56311H5.56646H5.56983H5.57323H5.57665H5.58011H5.58358H5.58709H5.59062H5.59417H5.59775H5.60136H5.60499H5.60865H5.61233H5.61604H5.61977H5.62353H5.62731H5.63112H5.63495H5.6388H5.64268H5.64659H5.65052H5.65447H5.65845H5.66245H5.66648H5.67053H5.6746H5.6787H5.68282H5.68697H5.69114H5.69533H5.69954H5.70378H5.70804H5.71233H5.71663H5.72096H5.72531H5.72969H5.73409H5.73851H5.74295H5.74741H5.7519H5.75641H5.76094H5.76549H5.77006H5.77466H5.77928H5.78392H5.78858H5.79326H5.79796H5.80269H5.80743H5.8122H5.81698H5.82179H5.82662H5.83147H5.83634H5.84123H5.84614H5.85107H5.85602H5.86099H5.86598H5.87099H5.87602H5.88107H5.88614H5.89122H5.89633H5.90146H5.90661H5.91177H5.91696H5.92216H5.92738H5.93262H5.93788H5.94316H5.94846H5.95377H5.9591H5.96446H5.96983H5.97521H5.98062H5.98604H5.99148H5.99694H6.00242H6.00791H6.01342H6.01895H6.02449H6.03006H6.03564H6.04123H6.04685H6.05248H6.05812H6.06379H6.06946H6.07516H6.08087H6.0866H6.09234H6.0981H6.10388H6.10967H6.11548H6.1213H6.12714H6.133H6.13887H6.14475H6.15065H6.15656H6.16249H6.16844H6.1744H6.18037H6.18636H6.19236H6.19838H6.20441H6.21046H6.21652H6.2226H6.22868H6.23479H6.2409H6.24703H6.25317H6.25933H6.2655H6.27168H6.27788H6.28409H6.29031H6.29655H6.3028H6.30906H6.31533H6.32162H6.32792H6.33423H6.34055H6.34689H6.35324H6.3596H6.36597H6.37235H6.37875H6.38516H6.39158H6.39801H6.40445H6.4109H6.41736H6.42384H6.43033H6.43682H6.44333H6.44985H6.45638H6.46292H6.46947H6.47603H6.4826H6.48918H6.49577H6.50237H6.50898H6.5156H6.52224H6.52888H6.53553H6.54218H6.54885H6.55553H6.56222H6.56891H6.57562H6.58233H6.58906H6.59579H6.60253H6.60928H6.61603H6.6228H6.62957H6.63635H6.64314H6.64994H6.65675H6.66356H6.67038H6.67721H6.68405H6.69089H6.69774H6.7046H6.71146H6.71834H6.72522H6.7321H6.73899H6.74589H6.7528H6.75971H6.76663H6.77356H6.78049H6.78743H6.79437H6.80132H6.80828H6.81524H6.82221H6.82918H6.83616H6.84314H6.85013H6.85712H6.86412H6.87113H6.87813H6.88515H6.89217H6.89919H6.90622H6.91325H6.92029H6.92733H6.93437H6.94142H6.94848H6.95553H6.9626H6.96966H6.97673H6.9838H6.99088H6.99796H7.00504H7.01212H7.01921H7.0263H7.0334H7.0405H7.0476H7.0547H7.0618H7.06891H7.07602H7.08313H7.09025H7.09736H7.10448H7.1116H7.11872H7.12585H7.13297H7.1401H7.14723H7.15436H7.16149H7.16862H7.17576H7.18289H7.19003H7.19716H7.2043H7.21144H7.21857H7.22571H7.23285H7.23999H7.24713H7.25427H7.26141H7.26854H7.27568H7.28282H7.28996H7.2971H7.30423H7.31137H7.31851H7.32564H7.33277H7.33991H7.34704H7.35417H7.3613H7.36842H7.37555H7.38267H7.3898H7.39692H7.40404H7.41115H7.41827H7.42538H7.43249H7.4396H7.44671H7.45381H7.46091H7.46801H7.4751H7.48219H7.48928H7.49637H7.50345H7.51053H7.51761H7.52468H7.53175H7.53882H7.54588H7.55294H7.55999H7.56704H7.57409H7.58113H7.58817H7.5952H7.60223H7.60926H7.61628H7.62329H7.6303H7.63731H7.64431H7.6513H7.65829H7.66528H7.67226H7.67923H7.6862H7.69316H7.70012H7.70707H7.71402H7.72096H7.72789H7.73482H7.74174H7.74865H7.75556H7.76246H7.76936H7.77625H7.78313H7.79H7.79687H7.80373H7.81058H7.81743H7.82427H7.8311H7.83792H7.84473H7.85154H7.85834H7.86513H7.87192H7.87869H7.88546H7.89222H7.89897H7.90571H7.91245H7.91917H7.92589H7.9326H7.93929H7.94598H7.95266H7.95933H7.966H7.97265H7.97929H7.98592H7.99255H7.99916H8.00576H8.01236H8.01894H8.02552H8.03208H8.03863H8.04517H8.05171H8.05823H8.06474H8.07124H8.07773H8.08421H8.09067H8.09713H8.10357H8.11001H8.11643H8.12284H8.12924H8.13562H8.142H8.14423H8.14646H8.14868H8.15091H8.15313H8.15534H8.15756H8.15977H8.16198H8.16418H8.16638H8.16858H8.17078H8.17297H8.17516H8.17735H8.17954H8.18172H8.1839H8.18607H8.18825H8.19042H8.19258H8.19475H8.19691H8.19907H8.20122H8.20337H8.20552H8.20767H8.20981H8.21195H8.21409H8.21622H8.21835H8.22048H8.22261H8.22473H8.22685H8.22896H8.23107H8.23318H8.23529H8.23739H8.23949H8.24159H8.24369H8.24578H8.24786H8.24995H8.25203H8.25411H8.25618H8.25826H8.26032H8.26239H8.26445H8.26651H8.26857H8.27062H8.27267H8.27472H8.27676H8.2788H8.28084H8.28287H8.2849H8.28693H8.28895H8.29098H8.29299H8.29501H8.29702H8.29903H8.30103H8.30303H8.30503H8.30702H8.30902H8.311H8.31299H8.31497H8.31695H8.31892H8.32089H8.32286H8.32483H8.32679H8.32875H8.3307H8.33265H8.3346H8.33654H8.33849H8.34042H8.34236H8.34429H8.34622H8.34814H8.35006H8.35198H8.35389H8.3558H8.35771H8.35961H8.36151H8.36341H8.3653H8.36719H8.36908H8.37096H8.37284H8.37471H8.37659H8.37845H8.38032H8.38218H8.38404H8.38589H8.38774H8.38959H8.39143H8.39327H8.39511H8.39694H8.39877H8.4006H8.40242H8.40424H8.40605H8.40787H8.40967H8.41148H8.41328H8.41508H8.41687H8.41866H8.42044H8.42223H8.42401H8.42578H8.42755H8.42932H8.43108H8.43284H8.4346H8.43635H8.4381H8.43985H8.44159H8.44333H8.44506H8.44679H8.44852H8.45024H8.45196H8.45368H8.45539H8.4571H8.4588H8.4605H8.4622H8.46389H8.46558H8.46726H8.46894H8.47062H8.4723H8.47397H8.47563H8.47729H8.47895H8.48061H8.48226H8.4839H8.48555H8.48719H8.48882H8.49045H8.49208H8.4937H8.49532H8.49694H8.49855H8.50016H8.50176H8.50336H8.50495H8.50655H8.50813H8.50972H8.5113H8.51287H8.51445H8.51601H8.51758H8.51914H8.52069H8.52225H8.52379H8.52534H8.52688H8.52841H8.52994H8.53147H8.533H8.53452H8.53603H8.53754H8.53905H8.54055H8.54205H8.54355H8.54504H8.54653H8.54801H8.54949H8.55096H8.55243H8.5539H8.55536H8.55682H8.55827H8.55972H8.56117H8.56261H8.56404H8.56548H8.56691H8.56833H8.56975H8.57117H8.57258H8.57399H8.57539H8.57679H8.57818H8.57957H8.58096H8.58234H8.58372H8.58509H8.58646H8.58783H8.58919H8.59055H8.5919H8.59325H8.59459H8.59593H8.59726H8.5986H8.59992H8.60124H8.60256H8.60387H8.60518H8.60649H8.60779H8.60908H8.61037H8.61166H8.61294H8.61422H8.6155H8.61677H8.61803H8.61929H8.62055H8.6218H8.62305H8.62429H8.62553H8.62676H8.62799H8.62921H8.63044H8.63165H8.63286H8.63407H8.63527H8.63647H8.63766H8.63885H8.64004H8.64122H8.64239H8.64356H8.64473H8.64589H8.64705H8.6482H8.64935H8.65049H8.65163H8.65276H8.65389H8.65502H8.65614H8.65725H8.65837H8.65947H8.66057H8.66167H8.66276H8.66385H8.66493H8.66601H8.66709H8.66816H8.66922H8.67028H8.67134H8.67239H8.67343H8.67447H8.67551H8.67654H8.67757H8.67859H8.67961H8.68062H8.68163H8.68263H8.68363H8.68462H8.68561H8.6866H8.68758H8.68855H8.68952H8.69049H8.69145H8.6924H8.69335H8.6943H8.69524H8.69617H8.6971H8.69803H8.69895H8.69987H8.70078H8.70169H8.70259H8.70349H8.70438H8.70527H8.70615H8.70702H8.7079H8.70876H8.70963H8.71048H8.71134H8.71219H8.71303H8.71387H8.7147H8.71553H8.71635H8.71717H8.71798H8.71879H8.71959H8.72039H8.72118H8.72197H8.72275H8.72353H8.7243H8.72507H8.72583H8.72659H8.72734H8.72809H8.72883H8.72957H8.7303H8.73103H8.73175H8.73247H8.73318H8.73389H8.73459H8.73529H8.73598H8.73667H8.73735H8.73802H8.73869H8.73936H8.74002H8.74067H8.74132H8.74197H8.74261H8.74324H8.74387H8.7445H8.74512H8.74573H8.74634H8.74694H8.74754H8.74813H8.74872H8.7493H8.74988H8.75045H8.75102H8.75158H8.75213H8.75268H8.75323H8.75377H8.7543H8.75483H8.75536H8.75588H8.75639H8.7569H8.7574H8.7579H8.75839H8.75888H8.75936H8.75983H8.7603H8.76077H8.76123H8.76168H8.76213H8.76258H8.76301H8.76345H8.76387H8.76429H8.76471H8.76512H8.76553H8.76593H8.76632H8.76671H8.76709H8.76747H8.76784H8.76821H8.76857H8.76893H8.76928H8.76962H8.76996H8.7703H8.77063H8.77095H8.77127H8.77158H8.77188H8.77219H8.77248H8.77277H8.77305H8.77333H8.7736H8.77387H8.77413H8.77439H8.77464H8.77488H8.77512H8.77536H8.77558H8.77581H8.77602H8.77623H8.77644H8.77664H8.77683H8.77702H8.7772H8.77738H8.77755H8.77771H8.77787H8.77803H8.77818H8.77832H8.77846H8.77859H8.77871H8.77883H8.77894H8.77905H8.77915H8.77925H8.77934H8.77943H8.7795H8.77958H8.77964H8.77971H8.77976H8.77981H8.77986H8.77989H8.77993H8.77995H8.77997H8.77999H8.78H8.78637H8.79276H8.79918H8.80561H8.81207H8.81856H8.82506H8.83159H8.83814H8.84472H8.85131H8.85793H8.86456H8.87122H8.8779H8.88461H8.89133H8.89807H8.90484H8.91163H8.91843H8.92526H8.93211H8.93897H8.94586H8.95277H8.95969H8.96664H8.97361H8.98059H8.9876H8.99462H9.00166H9.00873H9.01581H9.0229H9.03002H9.03716H9.04431H9.05148H9.05867H9.06588H9.0731H9.08034H9.0876H9.09488H9.10217H9.10948H9.11681H9.12415H9.13151H9.13889H9.14628H9.15369H9.16112H9.16856H9.17601H9.18349H9.19097H9.19847H9.20599H9.21352H9.22107H9.22863H9.23621H9.2438H9.25141H9.25903H9.26666H9.27431H9.28197H9.28964H9.29733H9.30503H9.31275H9.32048H9.32822H9.33597H9.34374H9.35151H9.35931H9.36711H9.37492H9.38275H9.39059H9.39844H9.40631H9.41418H9.42206H9.42996H9.43787H9.44579H9.45372H9.46166H9.46961H9.47757H9.48554H9.49352H9.50151H9.50951H9.51752H9.52554H9.53357H9.54161H9.54966H9.55771H9.56578H9.57385H9.58193H9.59003H9.59812H9.60623H9.61435H9.62247H9.6306H9.63874H9.64689H9.65504H9.6632H9.67137H9.67955H9.68773H9.69592H9.70411H9.71231H9.72052H9.72873H9.73695H9.74518H9.75341H9.76165H9.76989H9.77813H9.78639H9.79464H9.80291H9.81117H9.81945H9.82772H9.836H9.84429H9.85258H9.86087H9.86917H9.87747H9.88577H9.89408H9.90239H9.9107H9.91902H9.92734H9.93566H9.94399H9.95231H9.96064H9.96897H9.97731H9.98564H9.99398H10.0023H10.0107H10.019H10.0273H10.0357H10.044H10.0524H10.0607H10.0691H10.0774H10.0858H10.0941H10.1025H10.1108H10.1192H10.1275H10.1358H10.1442H10.1525H10.1609H10.1692H10.1776H10.1859H10.1942H10.2026H10.2109H10.2193H10.2276H10.2359H10.2442H10.2526H10.2609H10.2692H10.2775H10.2858H10.2941H10.3024H10.3107H10.319H10.3273H10.3356H10.3439H10.3522H10.3605H10.3688H10.377H10.3853H10.3936H10.4018H10.4101H10.4183H10.4265H10.4348H10.443H10.4512H10.4595H10.4677H10.4759H10.4841H10.4923H10.5004H10.5086H10.5168H10.525H10.5331H10.5413H10.5494H10.5576H10.5657H10.5738H10.5819H10.59H10.5981H10.6062H10.6143H10.6224H10.6304H10.6385H10.6465H10.6546H10.6626H10.6706H10.6786H10.6866H10.6946H10.7026H10.7105H10.7185H10.7264H10.7344H10.7423H10.7502H10.7581H10.766H10.7739H10.7818H10.7896H10.7975H10.8053H10.8131H10.8209H10.8287H10.8365H10.8443H10.8521H10.8598H10.8676H10.8753H10.883H10.8907H10.8984H10.906H10.9137H10.9213H10.929H10.9366H10.9442H10.9518H10.9593H10.9669H10.9744H10.982H10.9895H10.997H11.0045H11.0119H11.0194H11.0268H11.0342H11.0416H11.049H11.0564H11.0637H11.0711H11.0784H11.0857H11.093H11.1003H11.1075H11.1148H11.122H11.1292H11.1364H11.1435H11.1507H11.1578H11.1649H11.172H11.1791H11.1861H11.1932H11.2002H11.2072H11.2142H11.2211H11.2281H11.235H11.2419H11.2488H11.2556H11.2625H11.2693H11.2761H11.2829H11.2896H11.2964H11.3031H11.3098H11.3164H11.3231H11.3297H11.3363H11.3429H11.3495H11.356H11.3626H11.3691H11.3755H11.382H11.3884H11.3948H11.4012H11.4076H11.4139H11.4202H11.4265H11.4328H11.439H11.4452H11.4514H11.4576H11.4638H11.4699H11.476H11.482H11.4881H11.4941H11.5001H11.5061H11.512H11.518H11.5238H11.5297H11.5356H11.5414H11.5472H11.5529H11.5587H11.5644H11.5701H11.5757H11.5813H11.5869H11.5925H11.5981H11.6036H11.6091H11.6145H11.62H11.6254H11.6308H11.6361H11.6414H11.6467H11.652H11.6572H11.6624H11.6676H11.6727H11.6779H11.6829H11.688H11.693H11.698H11.703H11.7079H11.7128H11.7177H11.7226H11.7274H11.7322H11.7369H11.7416H11.7463H11.751H11.7556H11.7602H11.7647H11.7693H11.7738H11.7782H11.7827H11.7871H11.7914H11.7958H11.8001H11.8043H11.8085H11.8127H11.8169H11.821H11.8251H11.8292H11.8332H11.8372H11.8412H11.8451H11.849H11.8529H11.8567H11.8605H11.8642H11.8679H11.8716H11.8752H11.8789H11.8824H11.886H11.8895H11.8929H11.8963H11.8997H11.9031H11.9064H11.9097H11.9129H11.9161H11.9193H11.9224H11.9255H11.9286H11.9316H11.9345H11.9375H11.9404H11.9432H11.9461H11.9488H11.9516H11.9543H11.957H11.9596H11.9622H11.9647H11.9672H11.9697H11.9721H11.9745H11.9768H11.9792H11.9814H11.9836H11.9858H11.988H11.9901H11.9921H11.9941H11.9961H11.9981H11.9999H12.0018H12.0036H12.0054H12.0071H12.0088H12.0104H12.012H12.0136H12.0151H12.0165H12.018H12.0193H12.0207H12.022H12.0232H12.0244H12.0256H12.0267H12.0278H12.0288H12.0298H12.0307H12.0316H12.0324H12.0332H12.034H12.0347H12.0354H12.036H12.0366H12.0371H12.0376H12.038C12.1101 12.174 12.3188 12.2252 12.3758 12.4623Z" fill="white" stroke="black" stroke-width="0.2"/>
<path d="M10.218 8.81408C10.5057 9.98652 10.8379 11.1434 11.1388 11.827H6.09993C6.66228 10.2689 7.29659 6.96535 7.51789 5.49589L7.53519 5.381H7.419H6.715C6.5772 5.381 6.451 5.25619 6.451 5.08C6.451 4.90498 6.57705 4.78 6.715 4.78H7.567H7.6616L7.66685 4.68555L7.66785 4.66755L7.67139 4.60383L7.61509 4.57378C6.91004 4.19743 6.418 3.38985 6.418 2.45C6.418 1.14211 7.36983 0.1 8.525 0.1C9.68025 0.1 10.633 1.1412 10.633 2.45C10.633 3.38872 10.1391 4.19737 9.43391 4.57378L9.37413 4.60569L9.38161 4.67304L9.38361 4.69104L9.3935 4.78H9.483H10.334C10.4703 4.78 10.598 4.90535 10.598 5.08C10.598 5.25582 10.4701 5.381 10.334 5.381H9.63H9.51359L9.53114 5.49608C9.64772 6.26034 9.9084 7.55213 10.218 8.81408Z" fill="white" stroke="black" stroke-width="0.2"/>
<path d="M12.6939 16.6239L12.694 16.6241C12.7286 16.7195 12.7537 16.8745 12.7699 17.0134C12.7761 17.0659 12.7807 17.114 12.7842 17.153H4.4638C4.46555 17.1122 4.46836 17.062 4.47291 17.0074C4.48463 16.8666 4.50693 16.7103 4.54596 16.6119C4.58367 16.5168 4.66196 16.4188 4.73723 16.3408C4.77391 16.3028 4.80803 16.2713 4.83289 16.2495C4.83766 16.2453 4.84208 16.2414 4.8461 16.238H12.4028C12.4067 16.2417 12.411 16.2458 12.4156 16.2503C12.4407 16.2747 12.475 16.3094 12.5115 16.3503C12.5868 16.4348 12.6622 16.5359 12.6939 16.6239Z" fill="white" stroke="black" stroke-width="0.2"/>
<path d="M4.9884 15.867L5.43847 13.214H11.9077L12.2675 15.867H4.9884Z" fill="white" stroke="black" stroke-width="0.2"/>
</g>
<defs>
<clipPath id="clip0_0_1">
<rect width="17.253" height="17.253" fill="white"/>
</clipPath>
</defs>
</svg>
