<svg width="298" height="298" viewBox="0 0 298 298" fill="none" xmlns="http://www.w3.org/2000/svg">
<g clip-path="url(#clip0_0_1)">
<path d="M203.432 255.494L202.917 256.27H203.849H207.218C211.332 256.27 214.385 259.6 214.386 263.769V272.769C214.386 276.594 211.575 279.742 207.825 280.204L207.386 280.258V280.7V297.269H90.386V280.7V280.258L89.9472 280.204C86.1971 279.742 83.386 276.594 83.386 272.769V263.769C83.386 259.653 87.0504 256.269 91.219 256.269H94.671H95.6028L95.0876 255.493C92.8943 252.187 86.9659 241.271 95.7703 230.485C100.253 224.993 106.559 215.067 111.658 203.4C116.756 191.737 120.67 178.286 120.321 165.755L120.307 165.269H119.821H116.219C112.05 165.269 108.386 161.885 108.386 157.769V156.769C108.386 152.627 111.744 149.269 115.886 149.269V148.769V148.269C111.744 148.269 108.386 144.911 108.386 140.769V139.769C108.386 135.653 112.05 132.269 116.219 132.269H120.845H121.3L121.343 131.816C123.412 110.017 120.268 88.6165 115.347 76.9092C113.466 72.4333 111.179 69.0245 108.97 66.4438L108.82 66.269H108.59H106.219C102.05 66.269 98.386 62.8849 98.386 58.769V57.769C98.386 53.6531 102.05 50.269 106.219 50.269H117.019H117.443L117.512 49.8506C119.29 39.0994 126.401 30.1538 136.04 25.8149L136.584 25.5703L136.248 25.0776C134.531 22.5557 133.526 19.5132 133.526 16.232C133.526 7.54318 140.569 0.5 149.26 0.5C157.951 0.5 164.992 7.54308 164.992 16.233C164.992 19.5257 163.978 22.5779 162.25 25.1047L161.914 25.5967L162.457 25.8425C172.065 30.1922 179.15 39.124 180.925 49.8516L180.994 50.27H181.418H191.218C195.332 50.27 198.385 53.5998 198.385 57.77V58.77C198.385 62.9402 195.332 66.27 191.218 66.27H189.847H189.617L189.467 66.4448C187.258 69.0255 184.971 72.4343 183.09 76.9102C178.169 88.6175 175.025 110.018 177.094 131.817L177.137 132.27H177.592H182.218C186.332 132.27 189.385 135.6 189.385 139.77V140.77C189.385 144.912 186.027 148.27 181.885 148.27V148.77V149.27C186.027 149.27 189.385 152.628 189.385 156.77V157.77C189.385 161.94 186.332 165.27 182.218 165.27H178.699H178.213L178.199 165.756C177.851 178.287 181.765 191.738 186.863 203.401C191.963 215.068 198.268 224.994 202.75 230.486L203.137 230.17L202.75 230.486C211.555 241.273 205.626 252.188 203.432 255.494Z" fill="white" stroke="black"/>
</g>
<defs>
<clipPath id="clip0_0_1">
<rect width="297.77" height="297.77" fill="white"/>
</clipPath>
</defs>
</svg>
