<svg width="298" height="298" viewBox="0 0 298 298" fill="none" xmlns="http://www.w3.org/2000/svg">
<path d="M216.481 246.305L216.132 246.966L216.876 247.036C220.671 247.393 223.5 250.584 223.5 254.5V272.5C223.5 276.711 220.411 280.5 216.333 280.5H215H214.5V281V297.5H83.5V281V280.5H83H82.333C78.2037 280.5 74.5 276.655 74.5 272.5V254.5C74.5 250.621 77.6235 247.52 81.4577 247.161L82.202 247.091L81.8533 246.43C78.4256 239.929 72.2724 223.815 83.7345 207.691L83.327 207.401L83.7345 207.691C91.1604 197.244 100.03 176.575 105.336 153.28C110.642 129.985 112.407 103.969 105.532 82.8453L105.42 82.5H105.057H91.5V0.5H107.5V17V17.5H108H124H124.5V17V0.5H140.5V17V17.5H141H157H157.5V17V0.5H174.5V17V17.5H175H191H191.5V17V0.5H206.5V82.5H193.61H193.247L193.135 82.8453C186.26 103.969 188.004 129.985 193.29 153.28C198.575 176.574 207.424 197.243 214.849 207.691C226.308 223.812 219.913 239.797 216.481 246.305Z" fill="white" stroke="black"/>
</svg>
